<mxfile host="app.diagrams.net" modified="2022-05-14T08:51:54.529Z" agent="5.0 (Macintosh; Intel Mac OS X 10_15_7) AppleWebKit/537.36 (KHTML, like Gecko) Chrome/101.0.4951.64 Safari/537.36" etag="PZuo39uSM7AokO2KirXl" version="18.0.1" type="github">
  <diagram id="bIEgC8IjOLSTwYpr_64w" name="Page-1">
    <mxGraphModel dx="2310" dy="1977" grid="1" gridSize="10" guides="1" tooltips="1" connect="1" arrows="1" fold="1" page="1" pageScale="1" pageWidth="827" pageHeight="1169" math="0" shadow="0">
      <root>
        <mxCell id="0" />
        <mxCell id="1" parent="0" />
        <mxCell id="onEZKk-9TCxTVbbZEijR-10" value="" style="edgeStyle=orthogonalEdgeStyle;rounded=0;orthogonalLoop=1;jettySize=auto;html=1;" edge="1" parent="1" source="onEZKk-9TCxTVbbZEijR-2" target="onEZKk-9TCxTVbbZEijR-3">
          <mxGeometry relative="1" as="geometry" />
        </mxCell>
        <mxCell id="onEZKk-9TCxTVbbZEijR-2" value="혈중 갑상샘호르몬 농도가 정상이하로 떨어짐" style="rhombus;whiteSpace=wrap;html=1;" vertex="1" parent="1">
          <mxGeometry x="170" y="-540" width="130" height="110" as="geometry" />
        </mxCell>
        <mxCell id="onEZKk-9TCxTVbbZEijR-3" value="감각뉴런이 감지&lt;br&gt;신경자극 방출&lt;br&gt;표적기관 : 시상하부의 신경분비세포&amp;nbsp;" style="rounded=1;whiteSpace=wrap;html=1;" vertex="1" parent="1">
          <mxGeometry x="120" y="-410" width="230" height="60" as="geometry" />
        </mxCell>
        <mxCell id="onEZKk-9TCxTVbbZEijR-11" value="시상하부의 신경분비세포&lt;br&gt;갑상샘자극호르몬방출호르몬(TRH) 방출&lt;br&gt;방출 : 시상하부 -&amp;gt; 뇌하수체 전엽 혈류&lt;br&gt;표적기관 : 뇌하수체 전엽" style="rounded=1;whiteSpace=wrap;html=1;" vertex="1" parent="1">
          <mxGeometry x="120" y="-320" width="230" height="60" as="geometry" />
        </mxCell>
        <mxCell id="onEZKk-9TCxTVbbZEijR-12" value="뇌하수체 전엽&lt;br&gt;갑상샘자극호르몬(TSH, 타이로프로핀) 방출&lt;br&gt;방출 : 순환계 (온몸순환)&lt;br&gt;표적기관 : 갑상샘의 내분비세포" style="rounded=1;whiteSpace=wrap;html=1;" vertex="1" parent="1">
          <mxGeometry x="120" y="-230" width="230" height="60" as="geometry" />
        </mxCell>
        <mxCell id="onEZKk-9TCxTVbbZEijR-13" value="갑상샘의 내분비세포&lt;br&gt;갑상샘호르몬(삼요오드 티로닌(T3), 티록신(T4))방출&lt;br&gt;방출 : 순환계 (온몸순환)&lt;br&gt;표적기관 : 온몸의 순환세포" style="rounded=1;whiteSpace=wrap;html=1;" vertex="1" parent="1">
          <mxGeometry x="90" y="-140" width="290" height="60" as="geometry" />
        </mxCell>
        <mxCell id="onEZKk-9TCxTVbbZEijR-14" value="갑상샘호르몬 농도 증가&lt;br&gt;감각뉴런의 작용 : (음성피드백)" style="rounded=1;whiteSpace=wrap;html=1;" vertex="1" parent="1">
          <mxGeometry x="120" y="-50" width="230" height="60" as="geometry" />
        </mxCell>
        <mxCell id="onEZKk-9TCxTVbbZEijR-15" value="List" style="swimlane;fontStyle=0;childLayout=stackLayout;horizontal=1;startSize=30;horizontalStack=0;resizeParent=1;resizeParentMax=0;resizeLast=0;collapsible=1;marginBottom=0;" vertex="1" parent="1">
          <mxGeometry x="140" y="40" width="190" height="120" as="geometry" />
        </mxCell>
        <mxCell id="onEZKk-9TCxTVbbZEijR-16" value="혈압 조절, 심장 박동 조절" style="text;strokeColor=none;fillColor=none;align=left;verticalAlign=middle;spacingLeft=4;spacingRight=4;overflow=hidden;points=[[0,0.5],[1,0.5]];portConstraint=eastwest;rotatable=0;" vertex="1" parent="onEZKk-9TCxTVbbZEijR-15">
          <mxGeometry y="30" width="190" height="30" as="geometry" />
        </mxCell>
        <mxCell id="onEZKk-9TCxTVbbZEijR-17" value="근육의 긴장도 조절" style="text;strokeColor=none;fillColor=none;align=left;verticalAlign=middle;spacingLeft=4;spacingRight=4;overflow=hidden;points=[[0,0.5],[1,0.5]];portConstraint=eastwest;rotatable=0;" vertex="1" parent="onEZKk-9TCxTVbbZEijR-15">
          <mxGeometry y="60" width="190" height="30" as="geometry" />
        </mxCell>
        <mxCell id="onEZKk-9TCxTVbbZEijR-18" value="소화기능, 번식기능 도움" style="text;strokeColor=none;fillColor=none;align=left;verticalAlign=middle;spacingLeft=4;spacingRight=4;overflow=hidden;points=[[0,0.5],[1,0.5]];portConstraint=eastwest;rotatable=0;" vertex="1" parent="onEZKk-9TCxTVbbZEijR-15">
          <mxGeometry y="90" width="190" height="30" as="geometry" />
        </mxCell>
        <mxCell id="onEZKk-9TCxTVbbZEijR-19" value="" style="endArrow=classic;html=1;rounded=0;exitX=0;exitY=0.5;exitDx=0;exitDy=0;entryX=0;entryY=0.5;entryDx=0;entryDy=0;" edge="1" parent="1" source="onEZKk-9TCxTVbbZEijR-14" target="onEZKk-9TCxTVbbZEijR-11">
          <mxGeometry relative="1" as="geometry">
            <mxPoint x="360" y="-290" as="sourcePoint" />
            <mxPoint x="460" y="-290" as="targetPoint" />
            <Array as="points">
              <mxPoint x="40" y="-20" />
              <mxPoint x="40" y="-290" />
            </Array>
          </mxGeometry>
        </mxCell>
        <mxCell id="onEZKk-9TCxTVbbZEijR-20" value="TSH와 TSH생성 방지" style="edgeLabel;resizable=0;html=1;align=center;verticalAlign=middle;" connectable="0" vertex="1" parent="onEZKk-9TCxTVbbZEijR-19">
          <mxGeometry relative="1" as="geometry" />
        </mxCell>
        <mxCell id="onEZKk-9TCxTVbbZEijR-21" value="" style="endArrow=classic;html=1;rounded=0;exitX=0;exitY=0.5;exitDx=0;exitDy=0;entryX=0;entryY=0.5;entryDx=0;entryDy=0;" edge="1" parent="1" source="onEZKk-9TCxTVbbZEijR-14" target="onEZKk-9TCxTVbbZEijR-12">
          <mxGeometry relative="1" as="geometry">
            <mxPoint x="360" y="-290" as="sourcePoint" />
            <mxPoint x="460" y="-290" as="targetPoint" />
            <Array as="points">
              <mxPoint x="40" y="-20" />
              <mxPoint x="40" y="-200" />
            </Array>
          </mxGeometry>
        </mxCell>
        <mxCell id="onEZKk-9TCxTVbbZEijR-23" value="소화계&lt;br&gt;아이오딘(T)공급" style="rounded=1;whiteSpace=wrap;html=1;" vertex="1" parent="1">
          <mxGeometry x="460" y="-140" width="120" height="60" as="geometry" />
        </mxCell>
        <mxCell id="onEZKk-9TCxTVbbZEijR-24" value="" style="endArrow=classic;html=1;rounded=0;exitX=0;exitY=0.5;exitDx=0;exitDy=0;entryX=1;entryY=0.5;entryDx=0;entryDy=0;" edge="1" parent="1" source="onEZKk-9TCxTVbbZEijR-23" target="onEZKk-9TCxTVbbZEijR-13">
          <mxGeometry relative="1" as="geometry">
            <mxPoint x="360" y="-300" as="sourcePoint" />
            <mxPoint x="460" y="-300" as="targetPoint" />
          </mxGeometry>
        </mxCell>
        <mxCell id="onEZKk-9TCxTVbbZEijR-25" value="아이오딘" style="edgeLabel;resizable=0;html=1;align=center;verticalAlign=middle;" connectable="0" vertex="1" parent="onEZKk-9TCxTVbbZEijR-24">
          <mxGeometry relative="1" as="geometry" />
        </mxCell>
        <mxCell id="onEZKk-9TCxTVbbZEijR-26" value="" style="endArrow=classic;html=1;rounded=0;exitX=0.5;exitY=1;exitDx=0;exitDy=0;entryX=0.5;entryY=0;entryDx=0;entryDy=0;" edge="1" parent="1" source="onEZKk-9TCxTVbbZEijR-3" target="onEZKk-9TCxTVbbZEijR-11">
          <mxGeometry relative="1" as="geometry">
            <mxPoint x="360" y="-180" as="sourcePoint" />
            <mxPoint x="460" y="-180" as="targetPoint" />
          </mxGeometry>
        </mxCell>
        <mxCell id="onEZKk-9TCxTVbbZEijR-27" value="신경자극" style="edgeLabel;resizable=0;html=1;align=center;verticalAlign=middle;" connectable="0" vertex="1" parent="onEZKk-9TCxTVbbZEijR-26">
          <mxGeometry relative="1" as="geometry" />
        </mxCell>
        <mxCell id="onEZKk-9TCxTVbbZEijR-28" value="" style="endArrow=classic;html=1;rounded=0;exitX=0.5;exitY=1;exitDx=0;exitDy=0;entryX=0.5;entryY=0;entryDx=0;entryDy=0;" edge="1" parent="1" source="onEZKk-9TCxTVbbZEijR-11" target="onEZKk-9TCxTVbbZEijR-12">
          <mxGeometry relative="1" as="geometry">
            <mxPoint x="360" y="-180" as="sourcePoint" />
            <mxPoint x="460" y="-180" as="targetPoint" />
          </mxGeometry>
        </mxCell>
        <mxCell id="onEZKk-9TCxTVbbZEijR-29" value="TRH" style="edgeLabel;resizable=0;html=1;align=center;verticalAlign=middle;" connectable="0" vertex="1" parent="onEZKk-9TCxTVbbZEijR-28">
          <mxGeometry relative="1" as="geometry" />
        </mxCell>
        <mxCell id="onEZKk-9TCxTVbbZEijR-30" value="" style="endArrow=classic;html=1;rounded=0;exitX=0.5;exitY=1;exitDx=0;exitDy=0;entryX=0.5;entryY=0;entryDx=0;entryDy=0;" edge="1" parent="1" source="onEZKk-9TCxTVbbZEijR-12" target="onEZKk-9TCxTVbbZEijR-13">
          <mxGeometry relative="1" as="geometry">
            <mxPoint x="360" y="-180" as="sourcePoint" />
            <mxPoint x="460" y="-180" as="targetPoint" />
          </mxGeometry>
        </mxCell>
        <mxCell id="onEZKk-9TCxTVbbZEijR-31" value="TSH" style="edgeLabel;resizable=0;html=1;align=center;verticalAlign=middle;" connectable="0" vertex="1" parent="onEZKk-9TCxTVbbZEijR-30">
          <mxGeometry relative="1" as="geometry" />
        </mxCell>
        <mxCell id="onEZKk-9TCxTVbbZEijR-32" value="" style="endArrow=classic;html=1;rounded=0;exitX=0.5;exitY=1;exitDx=0;exitDy=0;" edge="1" parent="1" source="onEZKk-9TCxTVbbZEijR-13" target="onEZKk-9TCxTVbbZEijR-14">
          <mxGeometry relative="1" as="geometry">
            <mxPoint x="230" y="-70" as="sourcePoint" />
            <mxPoint x="460" y="-180" as="targetPoint" />
          </mxGeometry>
        </mxCell>
        <mxCell id="onEZKk-9TCxTVbbZEijR-33" value="T3, T4" style="edgeLabel;resizable=0;html=1;align=center;verticalAlign=middle;" connectable="0" vertex="1" parent="onEZKk-9TCxTVbbZEijR-32">
          <mxGeometry relative="1" as="geometry" />
        </mxCell>
        <mxCell id="onEZKk-9TCxTVbbZEijR-35" value="" style="shape=flexArrow;endArrow=classic;html=1;rounded=0;exitX=0.5;exitY=1;exitDx=0;exitDy=0;" edge="1" parent="1" source="onEZKk-9TCxTVbbZEijR-14" target="onEZKk-9TCxTVbbZEijR-15">
          <mxGeometry width="50" height="50" relative="1" as="geometry">
            <mxPoint x="390" y="-150" as="sourcePoint" />
            <mxPoint x="440" y="-200" as="targetPoint" />
          </mxGeometry>
        </mxCell>
        <mxCell id="onEZKk-9TCxTVbbZEijR-41" value="아이오딘이 부족한 경우&amp;nbsp;&lt;br&gt;억제되는 구간" style="ellipse;whiteSpace=wrap;html=1;" vertex="1" parent="1">
          <mxGeometry x="720" y="-450" width="120" height="80" as="geometry" />
        </mxCell>
        <mxCell id="onEZKk-9TCxTVbbZEijR-45" value="" style="shape=flexArrow;endArrow=classic;html=1;rounded=0;entryX=0;entryY=0.5;entryDx=0;entryDy=0;edgeStyle=orthogonalEdgeStyle;" edge="1" parent="1" target="onEZKk-9TCxTVbbZEijR-41">
          <mxGeometry width="50" height="50" relative="1" as="geometry">
            <mxPoint x="260" y="-60" as="sourcePoint" />
            <mxPoint x="440" y="-120" as="targetPoint" />
            <Array as="points">
              <mxPoint x="600" y="-60" />
              <mxPoint x="600" y="-410" />
            </Array>
          </mxGeometry>
        </mxCell>
        <mxCell id="onEZKk-9TCxTVbbZEijR-46" value="갑상샘 호르몬 분비 x" style="ellipse;whiteSpace=wrap;html=1;" vertex="1" parent="1">
          <mxGeometry x="630" y="-320" width="120" height="80" as="geometry" />
        </mxCell>
        <mxCell id="onEZKk-9TCxTVbbZEijR-47" value="갑상샘 호르몬 농도 낮음" style="ellipse;whiteSpace=wrap;html=1;" vertex="1" parent="1">
          <mxGeometry x="800" y="-320" width="120" height="80" as="geometry" />
        </mxCell>
        <mxCell id="onEZKk-9TCxTVbbZEijR-48" value="" style="endArrow=classic;html=1;rounded=0;exitX=0.5;exitY=1;exitDx=0;exitDy=0;entryX=0.5;entryY=0;entryDx=0;entryDy=0;" edge="1" parent="1" source="onEZKk-9TCxTVbbZEijR-41" target="onEZKk-9TCxTVbbZEijR-46">
          <mxGeometry width="50" height="50" relative="1" as="geometry">
            <mxPoint x="390" y="-80" as="sourcePoint" />
            <mxPoint x="440" y="-130" as="targetPoint" />
          </mxGeometry>
        </mxCell>
        <mxCell id="onEZKk-9TCxTVbbZEijR-49" value="" style="endArrow=classic;html=1;rounded=0;exitX=0.5;exitY=1;exitDx=0;exitDy=0;entryX=0.5;entryY=0;entryDx=0;entryDy=0;" edge="1" parent="1" source="onEZKk-9TCxTVbbZEijR-41" target="onEZKk-9TCxTVbbZEijR-47">
          <mxGeometry width="50" height="50" relative="1" as="geometry">
            <mxPoint x="390" y="-80" as="sourcePoint" />
            <mxPoint x="440" y="-130" as="targetPoint" />
          </mxGeometry>
        </mxCell>
        <mxCell id="onEZKk-9TCxTVbbZEijR-50" value="갑상샘 :&amp;nbsp;&lt;br&gt;TSH의 축적&lt;br&gt;(양성피드백)" style="ellipse;whiteSpace=wrap;html=1;" vertex="1" parent="1">
          <mxGeometry x="720" width="120" height="80" as="geometry" />
        </mxCell>
        <mxCell id="onEZKk-9TCxTVbbZEijR-51" value="갑상샘 비대증 발병" style="ellipse;whiteSpace=wrap;html=1;" vertex="1" parent="1">
          <mxGeometry x="720" y="100" width="120" height="80" as="geometry" />
        </mxCell>
        <mxCell id="onEZKk-9TCxTVbbZEijR-53" value="감각뉴런의 감지" style="ellipse;whiteSpace=wrap;html=1;" vertex="1" parent="1">
          <mxGeometry x="720" y="-200" width="120" height="80" as="geometry" />
        </mxCell>
        <mxCell id="onEZKk-9TCxTVbbZEijR-55" value="시상하부 : TRH분비" style="ellipse;whiteSpace=wrap;html=1;" vertex="1" parent="1">
          <mxGeometry x="720" y="-100" width="120" height="80" as="geometry" />
        </mxCell>
        <mxCell id="onEZKk-9TCxTVbbZEijR-56" value="" style="endArrow=classic;html=1;rounded=0;exitX=0.5;exitY=1;exitDx=0;exitDy=0;entryX=0.5;entryY=0;entryDx=0;entryDy=0;" edge="1" parent="1" source="onEZKk-9TCxTVbbZEijR-46" target="onEZKk-9TCxTVbbZEijR-53">
          <mxGeometry width="50" height="50" relative="1" as="geometry">
            <mxPoint x="390" y="-130" as="sourcePoint" />
            <mxPoint x="440" y="-180" as="targetPoint" />
          </mxGeometry>
        </mxCell>
        <mxCell id="onEZKk-9TCxTVbbZEijR-57" value="" style="endArrow=classic;html=1;rounded=0;exitX=0.5;exitY=1;exitDx=0;exitDy=0;entryX=0.5;entryY=0;entryDx=0;entryDy=0;" edge="1" parent="1" source="onEZKk-9TCxTVbbZEijR-47" target="onEZKk-9TCxTVbbZEijR-53">
          <mxGeometry width="50" height="50" relative="1" as="geometry">
            <mxPoint x="390" y="-130" as="sourcePoint" />
            <mxPoint x="440" y="-180" as="targetPoint" />
          </mxGeometry>
        </mxCell>
        <mxCell id="onEZKk-9TCxTVbbZEijR-58" value="" style="endArrow=classic;html=1;rounded=0;exitX=0.5;exitY=1;exitDx=0;exitDy=0;entryX=0.5;entryY=0;entryDx=0;entryDy=0;" edge="1" parent="1" source="onEZKk-9TCxTVbbZEijR-53" target="onEZKk-9TCxTVbbZEijR-55">
          <mxGeometry width="50" height="50" relative="1" as="geometry">
            <mxPoint x="390" y="-140" as="sourcePoint" />
            <mxPoint x="440" y="-190" as="targetPoint" />
          </mxGeometry>
        </mxCell>
        <mxCell id="onEZKk-9TCxTVbbZEijR-59" value="" style="endArrow=classic;html=1;rounded=0;exitX=0.5;exitY=1;exitDx=0;exitDy=0;entryX=0.5;entryY=0;entryDx=0;entryDy=0;" edge="1" parent="1" source="onEZKk-9TCxTVbbZEijR-55" target="onEZKk-9TCxTVbbZEijR-50">
          <mxGeometry width="50" height="50" relative="1" as="geometry">
            <mxPoint x="390" y="-140" as="sourcePoint" />
            <mxPoint x="440" y="-190" as="targetPoint" />
          </mxGeometry>
        </mxCell>
        <mxCell id="onEZKk-9TCxTVbbZEijR-60" value="" style="endArrow=classic;html=1;rounded=0;exitX=0.5;exitY=1;exitDx=0;exitDy=0;entryX=0.5;entryY=0;entryDx=0;entryDy=0;" edge="1" parent="1" source="onEZKk-9TCxTVbbZEijR-50" target="onEZKk-9TCxTVbbZEijR-51">
          <mxGeometry width="50" height="50" relative="1" as="geometry">
            <mxPoint x="390" y="-150" as="sourcePoint" />
            <mxPoint x="440" y="-200" as="targetPoint" />
          </mxGeometry>
        </mxCell>
        <mxCell id="onEZKk-9TCxTVbbZEijR-62" value="" style="endArrow=classic;html=1;rounded=0;exitX=1;exitY=0.5;exitDx=0;exitDy=0;entryX=1;entryY=0.5;entryDx=0;entryDy=0;edgeStyle=orthogonalEdgeStyle;" edge="1" parent="1" source="onEZKk-9TCxTVbbZEijR-50" target="onEZKk-9TCxTVbbZEijR-47">
          <mxGeometry relative="1" as="geometry">
            <mxPoint x="360" y="-180" as="sourcePoint" />
            <mxPoint x="460" y="-180" as="targetPoint" />
            <Array as="points">
              <mxPoint x="990" y="40" />
              <mxPoint x="990" y="-280" />
            </Array>
          </mxGeometry>
        </mxCell>
        <mxCell id="onEZKk-9TCxTVbbZEijR-63" value="TRH분비 계속 촉진" style="edgeLabel;resizable=0;html=1;align=center;verticalAlign=middle;" connectable="0" vertex="1" parent="onEZKk-9TCxTVbbZEijR-62">
          <mxGeometry relative="1" as="geometry" />
        </mxCell>
        <mxCell id="onEZKk-9TCxTVbbZEijR-67" value="시상하부&lt;br&gt;TRH 방출" style="rounded=1;whiteSpace=wrap;html=1;" vertex="1" parent="1">
          <mxGeometry x="150" y="310" width="75" height="60" as="geometry" />
        </mxCell>
        <mxCell id="onEZKk-9TCxTVbbZEijR-68" value="뇌하수체 전엽&lt;br&gt;TSH방출 (혈중)" style="rounded=1;whiteSpace=wrap;html=1;" vertex="1" parent="1">
          <mxGeometry x="137.5" y="400" width="100" height="60" as="geometry" />
        </mxCell>
        <mxCell id="onEZKk-9TCxTVbbZEijR-69" value="갑상샘&lt;br&gt;아이오딘이 없어 갑상샘호르몬 x" style="rounded=1;whiteSpace=wrap;html=1;" vertex="1" parent="1">
          <mxGeometry x="171.5" y="500" width="175" height="60" as="geometry" />
        </mxCell>
        <mxCell id="onEZKk-9TCxTVbbZEijR-81" value="" style="endArrow=classic;html=1;rounded=0;exitX=0.5;exitY=1;exitDx=0;exitDy=0;entryX=0.5;entryY=0;entryDx=0;entryDy=0;" edge="1" parent="1" target="onEZKk-9TCxTVbbZEijR-67">
          <mxGeometry relative="1" as="geometry">
            <mxPoint x="187.5" y="280" as="sourcePoint" />
            <mxPoint x="412.5" y="450" as="targetPoint" />
          </mxGeometry>
        </mxCell>
        <mxCell id="onEZKk-9TCxTVbbZEijR-82" value="신경자극" style="edgeLabel;resizable=0;html=1;align=center;verticalAlign=middle;" connectable="0" vertex="1" parent="onEZKk-9TCxTVbbZEijR-81">
          <mxGeometry relative="1" as="geometry" />
        </mxCell>
        <mxCell id="onEZKk-9TCxTVbbZEijR-83" value="" style="endArrow=classic;html=1;rounded=0;exitX=0.5;exitY=1;exitDx=0;exitDy=0;entryX=0.5;entryY=0;entryDx=0;entryDy=0;" edge="1" parent="1" source="onEZKk-9TCxTVbbZEijR-67" target="onEZKk-9TCxTVbbZEijR-68">
          <mxGeometry relative="1" as="geometry">
            <mxPoint x="312.5" y="450" as="sourcePoint" />
            <mxPoint x="412.5" y="450" as="targetPoint" />
          </mxGeometry>
        </mxCell>
        <mxCell id="onEZKk-9TCxTVbbZEijR-84" value="TRH" style="edgeLabel;resizable=0;html=1;align=center;verticalAlign=middle;" connectable="0" vertex="1" parent="onEZKk-9TCxTVbbZEijR-83">
          <mxGeometry relative="1" as="geometry" />
        </mxCell>
        <mxCell id="onEZKk-9TCxTVbbZEijR-85" value="" style="endArrow=classic;html=1;rounded=0;exitX=0.5;exitY=1;exitDx=0;exitDy=0;entryX=0.5;entryY=0;entryDx=0;entryDy=0;" edge="1" parent="1" source="onEZKk-9TCxTVbbZEijR-68" target="onEZKk-9TCxTVbbZEijR-69">
          <mxGeometry relative="1" as="geometry">
            <mxPoint x="312.5" y="450" as="sourcePoint" />
            <mxPoint x="412.5" y="450" as="targetPoint" />
          </mxGeometry>
        </mxCell>
        <mxCell id="onEZKk-9TCxTVbbZEijR-86" value="TSH" style="edgeLabel;resizable=0;html=1;align=center;verticalAlign=middle;" connectable="0" vertex="1" parent="onEZKk-9TCxTVbbZEijR-85">
          <mxGeometry relative="1" as="geometry" />
        </mxCell>
        <mxCell id="onEZKk-9TCxTVbbZEijR-107" value="혈중 갑상샘호르몬 농도가 정상이하로 떨어짐" style="rhombus;whiteSpace=wrap;html=1;" vertex="1" parent="1">
          <mxGeometry x="122.5" y="230" width="130" height="60" as="geometry" />
        </mxCell>
        <mxCell id="onEZKk-9TCxTVbbZEijR-118" value="" style="endArrow=classic;html=1;rounded=0;exitX=1;exitY=0.5;exitDx=0;exitDy=0;entryX=1;entryY=0.5;entryDx=0;entryDy=0;edgeStyle=orthogonalEdgeStyle;" edge="1" parent="1" source="onEZKk-9TCxTVbbZEijR-69" target="onEZKk-9TCxTVbbZEijR-107">
          <mxGeometry width="50" height="50" relative="1" as="geometry">
            <mxPoint x="312.5" y="570" as="sourcePoint" />
            <mxPoint x="352.5" y="360" as="targetPoint" />
            <Array as="points">
              <mxPoint x="346.5" y="520" />
              <mxPoint x="422.5" y="520" />
              <mxPoint x="422.5" y="260" />
            </Array>
          </mxGeometry>
        </mxCell>
        <mxCell id="onEZKk-9TCxTVbbZEijR-119" value="갑상샘&lt;br&gt;TSH축적" style="rounded=1;whiteSpace=wrap;html=1;" vertex="1" parent="1">
          <mxGeometry x="32.5" y="500" width="120" height="60" as="geometry" />
        </mxCell>
        <mxCell id="onEZKk-9TCxTVbbZEijR-120" value="" style="endArrow=classic;html=1;rounded=0;exitX=0.5;exitY=1;exitDx=0;exitDy=0;entryX=0.5;entryY=0;entryDx=0;entryDy=0;" edge="1" parent="1" source="onEZKk-9TCxTVbbZEijR-68" target="onEZKk-9TCxTVbbZEijR-119">
          <mxGeometry relative="1" as="geometry">
            <mxPoint x="197.5" y="469.99999999999955" as="sourcePoint" />
            <mxPoint x="268.99999999999955" y="509.99999999999955" as="targetPoint" />
          </mxGeometry>
        </mxCell>
        <mxCell id="onEZKk-9TCxTVbbZEijR-121" value="TSH" style="edgeLabel;resizable=0;html=1;align=center;verticalAlign=middle;" connectable="0" vertex="1" parent="onEZKk-9TCxTVbbZEijR-120">
          <mxGeometry relative="1" as="geometry" />
        </mxCell>
        <mxCell id="onEZKk-9TCxTVbbZEijR-122" value="" style="shape=flexArrow;endArrow=classic;html=1;rounded=0;exitX=0.5;exitY=1;exitDx=0;exitDy=0;" edge="1" parent="1" source="onEZKk-9TCxTVbbZEijR-119">
          <mxGeometry width="50" height="50" relative="1" as="geometry">
            <mxPoint x="312.5" y="430" as="sourcePoint" />
            <mxPoint x="92.5" y="600" as="targetPoint" />
          </mxGeometry>
        </mxCell>
        <mxCell id="onEZKk-9TCxTVbbZEijR-123" value="갑상샘 비대증" style="rounded=1;whiteSpace=wrap;html=1;" vertex="1" parent="1">
          <mxGeometry x="30" y="600" width="120" height="60" as="geometry" />
        </mxCell>
        <mxCell id="onEZKk-9TCxTVbbZEijR-124" value="&lt;h1&gt;체내 아이오딘에 의한 갑상선 대사&lt;/h1&gt;&lt;p&gt;체내 아이오딘에 대한 갑상선 대사와 갑상선 비대증 발병 과정 정리&lt;/p&gt;&lt;p&gt;[unsignednamedperson : B!OLOGY]&lt;/p&gt;" style="text;html=1;strokeColor=none;fillColor=none;spacing=5;spacingTop=-20;whiteSpace=wrap;overflow=hidden;rounded=0;" vertex="1" parent="1">
          <mxGeometry x="580" y="250" width="350" height="120" as="geometry" />
        </mxCell>
      </root>
    </mxGraphModel>
  </diagram>
</mxfile>
